<mxfile host="app.diagrams.net" modified="2022-07-19T02:50:02.631Z" agent="5.0 (Windows NT 10.0; Win64; x64) AppleWebKit/537.36 (KHTML, like Gecko) Chrome/103.0.5060.66 Safari/537.36 Edg/103.0.1264.44" etag="vZELq8kOzab6SarBNC3m" version="20.0.4" type="github">
  <diagram id="tBmDAZw7Sw7GOBl7qoM5" name="第 1 页">
    <mxGraphModel dx="1761" dy="965" grid="1" gridSize="10" guides="1" tooltips="1" connect="1" arrows="1" fold="1" page="1" pageScale="1" pageWidth="827" pageHeight="1169" math="0" shadow="0">
      <root>
        <mxCell id="0" />
        <mxCell id="1" parent="0" />
        <mxCell id="IFnmdbWBLqDAFixxDd6E-19" value="推送服务(内存中持有在线状态)" style="rounded=0;whiteSpace=wrap;html=1;align=left;verticalAlign=top;fontSize=18;" vertex="1" parent="1">
          <mxGeometry x="210" y="470" width="430" height="120" as="geometry" />
        </mxCell>
        <mxCell id="IFnmdbWBLqDAFixxDd6E-1" value="sdk" style="rounded=0;whiteSpace=wrap;html=1;" vertex="1" parent="1">
          <mxGeometry x="278" y="128" width="140" height="60" as="geometry" />
        </mxCell>
        <mxCell id="IFnmdbWBLqDAFixxDd6E-3" value="&lt;font style=&quot;font-size: 15px;&quot;&gt;proxy&lt;/font&gt;" style="rounded=0;whiteSpace=wrap;html=1;labelBackgroundColor=default;fontSize=12;align=left;verticalAlign=top;" vertex="1" parent="1">
          <mxGeometry x="90" y="313" width="549" height="77" as="geometry" />
        </mxCell>
        <mxCell id="IFnmdbWBLqDAFixxDd6E-4" value="边缘(appId:1,2)" style="rounded=0;whiteSpace=wrap;html=1;fillColor=#fff2cc;strokeColor=#d6b656;" vertex="1" parent="1">
          <mxGeometry x="514" y="325" width="120" height="61" as="geometry" />
        </mxCell>
        <mxCell id="IFnmdbWBLqDAFixxDd6E-5" value="无锡" style="rounded=0;whiteSpace=wrap;html=1;fillColor=#fff2cc;strokeColor=#d6b656;" vertex="1" parent="1">
          <mxGeometry x="134" y="325" width="120" height="61" as="geometry" />
        </mxCell>
        <mxCell id="IFnmdbWBLqDAFixxDd6E-6" value="北京" style="rounded=0;whiteSpace=wrap;html=1;fillColor=#fff2cc;strokeColor=#d6b656;" vertex="1" parent="1">
          <mxGeometry x="264" y="324.5" width="120" height="61" as="geometry" />
        </mxCell>
        <mxCell id="IFnmdbWBLqDAFixxDd6E-7" value="深圳" style="rounded=0;whiteSpace=wrap;html=1;labelBackgroundColor=default;fontSize=12;fillColor=#fff2cc;strokeColor=#d6b656;" vertex="1" parent="1">
          <mxGeometry x="398" y="323" width="100" height="64" as="geometry" />
        </mxCell>
        <mxCell id="IFnmdbWBLqDAFixxDd6E-8" value="web nginx" style="rounded=0;whiteSpace=wrap;html=1;" vertex="1" parent="1">
          <mxGeometry x="690" y="313" width="130" height="77" as="geometry" />
        </mxCell>
        <mxCell id="IFnmdbWBLqDAFixxDd6E-10" value="无锡" style="rounded=0;whiteSpace=wrap;html=1;fillColor=#fff2cc;strokeColor=#d6b656;" vertex="1" parent="1">
          <mxGeometry x="134" y="325" width="120" height="61" as="geometry" />
        </mxCell>
        <mxCell id="IFnmdbWBLqDAFixxDd6E-11" value="北京" style="rounded=0;whiteSpace=wrap;html=1;fillColor=#fff2cc;strokeColor=#d6b656;" vertex="1" parent="1">
          <mxGeometry x="264" y="324.5" width="120" height="61" as="geometry" />
        </mxCell>
        <mxCell id="IFnmdbWBLqDAFixxDd6E-12" value="深圳" style="rounded=0;whiteSpace=wrap;html=1;labelBackgroundColor=default;fontSize=12;fillColor=#fff2cc;strokeColor=#d6b656;" vertex="1" parent="1">
          <mxGeometry x="398" y="323" width="100" height="64" as="geometry" />
        </mxCell>
        <mxCell id="IFnmdbWBLqDAFixxDd6E-15" value="推送消息用户" style="rounded=0;whiteSpace=wrap;html=1;" vertex="1" parent="1">
          <mxGeometry x="514" y="128" width="140" height="60" as="geometry" />
        </mxCell>
        <mxCell id="IFnmdbWBLqDAFixxDd6E-16" value="无锡" style="rounded=0;whiteSpace=wrap;html=1;fillColor=#dae8fc;strokeColor=#6c8ebf;" vertex="1" parent="1">
          <mxGeometry x="278" y="510" width="120" height="60" as="geometry" />
        </mxCell>
        <mxCell id="IFnmdbWBLqDAFixxDd6E-17" value="深圳" style="rounded=0;whiteSpace=wrap;html=1;fillColor=#dae8fc;strokeColor=#6c8ebf;" vertex="1" parent="1">
          <mxGeometry x="490" y="510" width="120" height="60" as="geometry" />
        </mxCell>
        <mxCell id="IFnmdbWBLqDAFixxDd6E-20" value="获取设备状态" style="endArrow=classic;startArrow=classic;html=1;rounded=0;entryX=0;entryY=0.5;entryDx=0;entryDy=0;entryPerimeter=0;" edge="1" parent="1" target="IFnmdbWBLqDAFixxDd6E-17">
          <mxGeometry width="50" height="50" relative="1" as="geometry">
            <mxPoint x="400" y="540" as="sourcePoint" />
            <mxPoint x="460" y="540" as="targetPoint" />
          </mxGeometry>
        </mxCell>
        <mxCell id="IFnmdbWBLqDAFixxDd6E-22" value="" style="endArrow=classic;html=1;rounded=0;fontSize=18;entryX=1.013;entryY=0.321;entryDx=0;entryDy=0;entryPerimeter=0;exitX=0.364;exitY=1.026;exitDx=0;exitDy=0;exitPerimeter=0;" edge="1" parent="1" source="IFnmdbWBLqDAFixxDd6E-8" target="IFnmdbWBLqDAFixxDd6E-19">
          <mxGeometry width="50" height="50" relative="1" as="geometry">
            <mxPoint x="720" y="440" as="sourcePoint" />
            <mxPoint x="770" y="390" as="targetPoint" />
          </mxGeometry>
        </mxCell>
        <mxCell id="IFnmdbWBLqDAFixxDd6E-23" value="api推送接口" style="endArrow=classic;html=1;rounded=0;fontSize=18;" edge="1" parent="1" target="IFnmdbWBLqDAFixxDd6E-8">
          <mxGeometry width="50" height="50" relative="1" as="geometry">
            <mxPoint x="620" y="190" as="sourcePoint" />
            <mxPoint x="704" y="180" as="targetPoint" />
          </mxGeometry>
        </mxCell>
        <mxCell id="IFnmdbWBLqDAFixxDd6E-24" value="下发消息" style="endArrow=classic;html=1;rounded=0;fontSize=18;entryX=0.75;entryY=1;entryDx=0;entryDy=0;" edge="1" parent="1">
          <mxGeometry width="50" height="50" relative="1" as="geometry">
            <mxPoint x="530" y="470" as="sourcePoint" />
            <mxPoint x="527.75" y="390" as="targetPoint" />
          </mxGeometry>
        </mxCell>
        <mxCell id="IFnmdbWBLqDAFixxDd6E-25" value="上报在线状态" style="endArrow=classic;html=1;rounded=0;fontSize=18;entryX=0.228;entryY=0.007;entryDx=0;entryDy=0;entryPerimeter=0;exitX=0.395;exitY=1.026;exitDx=0;exitDy=0;exitPerimeter=0;" edge="1" parent="1" source="IFnmdbWBLqDAFixxDd6E-3" target="IFnmdbWBLqDAFixxDd6E-19">
          <mxGeometry width="50" height="50" relative="1" as="geometry">
            <mxPoint x="320" y="400" as="sourcePoint" />
            <mxPoint x="320" y="390" as="targetPoint" />
            <Array as="points">
              <mxPoint x="308" y="420" />
            </Array>
          </mxGeometry>
        </mxCell>
        <mxCell id="IFnmdbWBLqDAFixxDd6E-27" value="http/1.1,http/2.0,&lt;br&gt;http/3.0长连接&lt;br&gt;" style="shape=doubleArrow;direction=south;whiteSpace=wrap;html=1;labelBackgroundColor=#FFFFFF;fontSize=15;fillColor=#dae8fc;strokeColor=#6c8ebf;" vertex="1" parent="1">
          <mxGeometry x="304" y="188" width="80" height="125" as="geometry" />
        </mxCell>
        <mxCell id="IFnmdbWBLqDAFixxDd6E-28" value="定时全量上报" style="endArrow=none;html=1;rounded=0;fontSize=18;exitX=0.365;exitY=-0.013;exitDx=0;exitDy=0;exitPerimeter=0;" edge="1" parent="1">
          <mxGeometry x="-0.0196" y="-16" width="50" height="50" relative="1" as="geometry">
            <mxPoint x="403.9499999999998" y="468.44000000000005" as="sourcePoint" />
            <mxPoint x="404" y="390" as="targetPoint" />
            <mxPoint as="offset" />
          </mxGeometry>
        </mxCell>
        <mxCell id="IFnmdbWBLqDAFixxDd6E-29" value="" style="rounded=0;whiteSpace=wrap;html=1;fontSize=18;" vertex="1" parent="1">
          <mxGeometry x="100" y="820" width="120" height="60" as="geometry" />
        </mxCell>
        <mxCell id="IFnmdbWBLqDAFixxDd6E-30" value="sdk" style="rounded=0;whiteSpace=wrap;html=1;fontSize=18;" vertex="1" parent="1">
          <mxGeometry x="173" y="670" width="120" height="60" as="geometry" />
        </mxCell>
        <mxCell id="IFnmdbWBLqDAFixxDd6E-31" value="" style="endArrow=classic;html=1;rounded=0;fontSize=18;exitX=0.322;exitY=1.004;exitDx=0;exitDy=0;exitPerimeter=0;" edge="1" parent="1">
          <mxGeometry width="50" height="50" relative="1" as="geometry">
            <mxPoint x="196.6400000000001" y="730.24" as="sourcePoint" />
            <mxPoint x="157.93587174348704" y="820" as="targetPoint" />
          </mxGeometry>
        </mxCell>
        <mxCell id="IFnmdbWBLqDAFixxDd6E-32" value="" style="rounded=0;whiteSpace=wrap;html=1;fontSize=18;" vertex="1" parent="1">
          <mxGeometry x="266" y="820" width="120" height="60" as="geometry" />
        </mxCell>
        <mxCell id="IFnmdbWBLqDAFixxDd6E-33" value="" style="endArrow=classic;html=1;rounded=0;fontSize=18;exitX=0.83;exitY=0.994;exitDx=0;exitDy=0;entryX=0.33;entryY=-0.035;entryDx=0;entryDy=0;entryPerimeter=0;exitPerimeter=0;" edge="1" parent="1" source="IFnmdbWBLqDAFixxDd6E-30" target="IFnmdbWBLqDAFixxDd6E-32">
          <mxGeometry width="50" height="50" relative="1" as="geometry">
            <mxPoint x="230" y="890" as="sourcePoint" />
            <mxPoint x="280" y="810" as="targetPoint" />
          </mxGeometry>
        </mxCell>
        <mxCell id="IFnmdbWBLqDAFixxDd6E-34" value="sdk" style="rounded=0;whiteSpace=wrap;html=1;fontSize=18;" vertex="1" parent="1">
          <mxGeometry x="80" y="1070" width="120" height="60" as="geometry" />
        </mxCell>
        <mxCell id="IFnmdbWBLqDAFixxDd6E-35" value="proxy" style="rounded=0;whiteSpace=wrap;html=1;fontSize=18;" vertex="1" parent="1">
          <mxGeometry x="492" y="1071" width="120" height="60" as="geometry" />
        </mxCell>
        <mxCell id="IFnmdbWBLqDAFixxDd6E-36" value="" style="endArrow=classic;html=1;rounded=0;fontSize=18;entryX=0;entryY=0.25;entryDx=0;entryDy=0;exitX=1;exitY=0.5;exitDx=0;exitDy=0;" edge="1" parent="1" target="IFnmdbWBLqDAFixxDd6E-35">
          <mxGeometry width="50" height="50" relative="1" as="geometry">
            <mxPoint x="200" y="1088" as="sourcePoint" />
            <mxPoint x="470" y="1088" as="targetPoint" />
          </mxGeometry>
        </mxCell>
        <mxCell id="IFnmdbWBLqDAFixxDd6E-37" value="message2" style="rounded=0;whiteSpace=wrap;html=1;fontSize=18;" vertex="1" parent="1">
          <mxGeometry x="286" y="1060" width="80" height="20" as="geometry" />
        </mxCell>
        <mxCell id="IFnmdbWBLqDAFixxDd6E-38" value="message1" style="rounded=0;whiteSpace=wrap;html=1;fontSize=18;" vertex="1" parent="1">
          <mxGeometry x="384" y="1060" width="80" height="20" as="geometry" />
        </mxCell>
        <mxCell id="IFnmdbWBLqDAFixxDd6E-42" value="" style="endArrow=classic;html=1;rounded=0;fontSize=18;entryX=1;entryY=0.75;entryDx=0;entryDy=0;exitX=0;exitY=0.75;exitDx=0;exitDy=0;" edge="1" parent="1" source="IFnmdbWBLqDAFixxDd6E-35" target="IFnmdbWBLqDAFixxDd6E-34">
          <mxGeometry width="50" height="50" relative="1" as="geometry">
            <mxPoint x="460" y="1120" as="sourcePoint" />
            <mxPoint x="200" y="1120" as="targetPoint" />
          </mxGeometry>
        </mxCell>
        <mxCell id="IFnmdbWBLqDAFixxDd6E-43" value="rsp2" style="rounded=0;whiteSpace=wrap;html=1;fontSize=18;" vertex="1" parent="1">
          <mxGeometry x="293" y="1120" width="80" height="20" as="geometry" />
        </mxCell>
        <mxCell id="IFnmdbWBLqDAFixxDd6E-44" value="rsp1" style="rounded=0;whiteSpace=wrap;html=1;fontSize=18;" vertex="1" parent="1">
          <mxGeometry x="384" y="1120" width="80" height="20" as="geometry" />
        </mxCell>
        <mxCell id="IFnmdbWBLqDAFixxDd6E-45" value="..." style="rounded=0;whiteSpace=wrap;html=1;fontSize=18;fontStyle=1" vertex="1" parent="1">
          <mxGeometry x="220" y="1060" width="50" height="20" as="geometry" />
        </mxCell>
        <mxCell id="IFnmdbWBLqDAFixxDd6E-46" style="edgeStyle=orthogonalEdgeStyle;rounded=0;orthogonalLoop=1;jettySize=auto;html=1;exitX=0.5;exitY=1;exitDx=0;exitDy=0;fontSize=18;" edge="1" parent="1" source="IFnmdbWBLqDAFixxDd6E-45" target="IFnmdbWBLqDAFixxDd6E-45">
          <mxGeometry relative="1" as="geometry" />
        </mxCell>
        <mxCell id="IFnmdbWBLqDAFixxDd6E-47" style="edgeStyle=orthogonalEdgeStyle;rounded=0;orthogonalLoop=1;jettySize=auto;html=1;exitX=0.5;exitY=1;exitDx=0;exitDy=0;fontSize=18;" edge="1" parent="1" source="IFnmdbWBLqDAFixxDd6E-44" target="IFnmdbWBLqDAFixxDd6E-44">
          <mxGeometry relative="1" as="geometry" />
        </mxCell>
        <mxCell id="IFnmdbWBLqDAFixxDd6E-49" value="..." style="rounded=0;whiteSpace=wrap;html=1;fontSize=18;fontStyle=1" vertex="1" parent="1">
          <mxGeometry x="220" y="1120" width="50" height="20" as="geometry" />
        </mxCell>
        <mxCell id="IFnmdbWBLqDAFixxDd6E-51" value="s1" style="endArrow=classic;html=1;rounded=0;fontSize=18;exitX=0.667;exitY=0;exitDx=0;exitDy=0;exitPerimeter=0;" edge="1" parent="1" source="IFnmdbWBLqDAFixxDd6E-29">
          <mxGeometry x="0.0719" y="-20" width="50" height="50" relative="1" as="geometry">
            <mxPoint x="180" y="810" as="sourcePoint" />
            <mxPoint x="220" y="730" as="targetPoint" />
            <mxPoint as="offset" />
          </mxGeometry>
        </mxCell>
      </root>
    </mxGraphModel>
  </diagram>
</mxfile>
